<?xml version="1.0" encoding="UTF-8" standalone="no"?>
<!-- Created with Inkscape (http://www.inkscape.org/) -->

<svg
   xmlns:dc="http://purl.org/dc/elements/1.1/"
   xmlns:cc="http://creativecommons.org/ns#"
   xmlns:rdf="http://www.w3.org/1999/02/22-rdf-syntax-ns#"
   xmlns:svg="http://www.w3.org/2000/svg"
   xmlns="http://www.w3.org/2000/svg"
   xmlns:sodipodi="http://sodipodi.sourceforge.net/DTD/sodipodi-0.dtd"
   xmlns:inkscape="http://www.inkscape.org/namespaces/inkscape"
   width="1005.4872"
   height="189.31102"
   id="svg2"
   version="1.1"
   inkscape:version="0.48.4 r9939"
   sodipodi:docname="s_56.svg">
  <defs
     id="defs4" />
  <sodipodi:namedview
     id="base"
     pagecolor="#ffffff"
     bordercolor="#666666"
     borderopacity="1.0"
     inkscape:pageopacity="0.0"
     inkscape:pageshadow="2"
     inkscape:zoom="1.4"
     inkscape:cx="734.96883"
     inkscape:cy="-14.43795"
     inkscape:document-units="px"
     inkscape:current-layer="layer3"
     showgrid="false"
     inkscape:window-width="1920"
     inkscape:window-height="1003"
     inkscape:window-x="-9"
     inkscape:window-y="-9"
     inkscape:window-maximized="1"
     fit-margin-top="0"
     fit-margin-left="0"
     fit-margin-right="0"
     fit-margin-bottom="0" />
  <metadata
     id="metadata7">
    <rdf:RDF>
      <cc:Work
         rdf:about="">
        <dc:format>image/svg+xml</dc:format>
        <dc:type
           rdf:resource="http://purl.org/dc/dcmitype/StillImage" />
        <dc:title />
      </cc:Work>
    </rdf:RDF>
  </metadata>
  <g
     inkscape:groupmode="layer"
     id="layer2"
     inkscape:label="black"
     style="display:inline"
     transform="translate(-280.21856,-655.25)" />
  <g
     inkscape:groupmode="layer"
     id="layer3"
     inkscape:label="white"
     style="opacity:0.93999999"
     transform="translate(-280.21856,-655.25)">
    <g
       id="g4424">
      <path
         sodipodi:nodetypes="ccccsc"
         inkscape:connector-curvature="0"
         id="path4115"
         d="m 1182.2148,771.53978 c -1.5246,-1.75719 -4.8722,-3.61032 -0.3788,-5.05077 l 0,-1.89403 -3.6618,-0.12627 c 0,0 -4.9245,0.75761 -7.7024,6.18718 -2.7779,5.42957 11.743,0.88389 11.743,0.88389 z"
         style="fill:#000000;stroke:#000000;stroke-width:1px;stroke-linecap:butt;stroke-linejoin:miter;stroke-opacity:1;display:inline" />
      <path
         sodipodi:nodetypes="ccccccccccccccc"
         inkscape:connector-curvature="0"
         id="path3020"
         d="m 1029.3904,821.6479 106.25,0.35714 16.9643,16.07143 11.7857,0.35714 22.5,-3.21428 0,-1.42857 -22.3365,3.31012 -2.4849,-0.63155 -1.6071,-1.96429 0,-13.13135 24.7142,-0.0829 0,-2.85714 -4.0356,-0.0111 0.036,-22.48895 z"
         style="fill:#000000;stroke:#000000;stroke-width:1px;stroke-linecap:butt;stroke-linejoin:miter;stroke-opacity:1;display:inline" />
      <path
         sodipodi:nodetypes="ccccccccccccccc"
         inkscape:connector-curvature="0"
         id="path3022"
         d="m 1182.2476,805.75504 -0.089,4.28571 1.6964,0.80357 0.089,6.16072 2.4107,0.26786 0,5.17857 -20.3571,0 0,9.28571 c 0.4336,1.00343 0.5334,2.17375 2.3214,2.5 l 33.8036,0 c 1.8258,-0.62839 3.3745,-1.64467 4.0178,-3.92857 l 0,-24.375 c -0.3955,-0.97784 -0.9633,-1.86955 -2.7678,-2.14286 l -20.6786,0 z"
         style="fill:#000000;stroke:#ffffff;stroke-width:1px;stroke-linecap:butt;stroke-linejoin:miter;stroke-opacity:1;display:inline" />
      <path
         inkscape:connector-curvature="0"
         id="path4127"
         d="m 723.85813,744.83387 -0.0631,-4.98763 1.2627,-0.44194 0,-2.20971 c 0,0 -5.17704,0.12627 -5.49271,0 -0.31567,-0.12627 -2.65165,-1.6415 -2.65165,-1.6415 l -2.96732,-0.25254 -1.13642,-2.90419 2.08344,-2.84105 6.37658,-0.25254 1.01016,-1.13642 6.43972,0.12627 0.75761,0.94702 11.55362,-1.4521 0.25254,1.95717 -11.80616,1.70464 -0.3788,3.53553 1.01015,0.25254 0,2.33598 -1.57837,0.12626 0.12627,1.57837 1.13643,0.94702 0.0631,5.05076 z"
         style="fill:#000000;stroke:#000000;stroke-width:1px;stroke-linecap:butt;stroke-linejoin:miter;stroke-opacity:1;display:inline" />
      <path
         inkscape:connector-curvature="0"
         id="rect3768"
         d="m 693.944,655.75 0,1.125 -3.5625,0 0,-1.125 3.5625,0 z m -1.53125,1.25 0,14.78125 1.15625,0 0,43.5625 -2.90625,0 0,-43.5625 1.25,0 0,-14.78125 0.5,0 z"
         style="fill:#000000;fill-opacity:1;stroke:#000000;stroke-width:1;stroke-linecap:butt;stroke-linejoin:miter;stroke-miterlimit:4;stroke-dasharray:none;display:inline" />
      <path
         id="rect3768-1"
         d="m 684.22002,686.39643 0,1.125 -3.5625,0 0,-1.125 3.5625,0 z m -1.53125,1.25 0,14.78125 1.15625,0 0,43.5625 -2.90625,0 0,-43.5625 1.25,0 0,-14.78125 0.5,0 z"
         style="fill:#000000;fill-opacity:1;stroke:#000000;stroke-width:1;stroke-linecap:butt;stroke-linejoin:miter;stroke-miterlimit:4;stroke-dasharray:none;display:inline"
         inkscape:connector-curvature="0" />
      <path
         inkscape:connector-curvature="0"
         id="rect2995"
         d="m 671.60025,712.8125 0,4.1875 -0.90625,0 0,4.03125 -1.5,0 0,-4.03125 -0.78125,0 0,-4.1875 3.1875,0 z"
         style="fill:#000000;stroke:#000000;stroke-width:1;stroke-linecap:butt;stroke-linejoin:miter;stroke-miterlimit:4;stroke-dasharray:none;display:inline" />
      <path
         inkscape:connector-curvature="0"
         id="path2993"
         d="m 699.61447,735.30055 c -1.6415,-3.53553 -5.42957,-20.70812 -5.42957,-20.70812 l -14.39468,0.12626 -0.25253,21.33948 z"
         style="fill:#000000;stroke:#000000;stroke-width:1px;stroke-linecap:butt;stroke-linejoin:miter;stroke-opacity:1;display:inline" />
      <path
         sodipodi:nodetypes="cccccccccccc"
         inkscape:connector-curvature="0"
         id="path2989"
         d="m 763.319,774.50504 -5.89286,-21.42857 -2.42603,-0.074 -0.32654,-7.02556 -44.41198,-0.3265 -3.72833,-13.10969 -23.39286,0.35715 c -8.72958,-1.70671 -10.18116,-7.89218 -13.03572,-13.21429 l -13.03571,0 c -1.58006,0.62192 -2.04638,1.6416 -1.96429,2.85714 l 0,53.21429 z"
         style="fill:#000000;stroke:#000000;stroke-width:1px;stroke-linecap:butt;stroke-linejoin:miter;stroke-opacity:1;display:inline" />
      <path
         inkscape:connector-curvature="0"
         d="m 711.53329,733.43361 0,6.07143 3.21428,7.14286 m 3.92857,-12.85715 0.17857,11.07143 m 18.39286,-10.89285 0,12.14285 m 8.57143,-12.67857 0,12.32143 m 5.35714,-6.07143 -44.10714,0.17857 m 44.10714,5.53572 0,-12.14286 -45.71428,0.35714"
         style="fill:none;stroke:#000000;stroke-width:1px;stroke-linecap:butt;stroke-linejoin:miter;stroke-opacity:1;display:inline"
         id="path3870" />
      <rect
         transform="scale(-1,1)"
         y="709.95642"
         x="-677.04053"
         height="21.662991"
         width="1.9073527"
         id="rect3874"
         style="fill:#000000;fill-opacity:1;stroke:#000000;stroke-width:0.69979018;stroke-linecap:butt;stroke-linejoin:miter;stroke-miterlimit:4;stroke-dasharray:none;display:inline" />
      <path
         transform="matrix(-1,0,0,1,1542.9619,0.89285714)"
         d="m 869.64287,706.82648 c 0,1.47933 -1.19924,2.67857 -2.67858,2.67857 -1.47933,0 -2.67857,-1.19924 -2.67857,-2.67857 0,-1.47934 1.19924,-2.67857 2.67857,-2.67857 1.47934,0 2.67858,1.19923 2.67858,2.67857 z"
         sodipodi:ry="2.6785715"
         sodipodi:rx="2.6785715"
         sodipodi:cy="706.82648"
         sodipodi:cx="866.96429"
         id="path3876"
         style="fill:#000000;fill-opacity:1;stroke:#000000;stroke-width:1;stroke-linecap:butt;stroke-linejoin:miter;stroke-miterlimit:4;stroke-dasharray:none;display:inline"
         sodipodi:type="arc" />
      <path
         inkscape:connector-curvature="0"
         id="path3878"
         d="m 662.49136,720.022 c -0.75761,-1.51523 -3.78807,-6.81853 -3.78807,-6.81853 l -0.25254,7.3236"
         style="fill:none;stroke:#000000;stroke-width:1px;stroke-linecap:butt;stroke-linejoin:miter;stroke-opacity:1;display:inline" />
      <path
         inkscape:connector-curvature="0"
         d="m 650.62207,759.92302 -0.12627,12.2481 m -10.85914,-12.50064 -0.12627,12.62691 m 29.92577,-7.57614 -56.82108,0 m 56.59678,5.14093 0.35714,-10.35714 -56.96429,0.17857 -0.17857,13.57143 -4.28571,0 4.64286,-13.21429"
         style="fill:none;stroke:#000000;stroke-width:1px;stroke-linecap:butt;stroke-linejoin:miter;stroke-opacity:1;display:inline"
         id="path4192" />
      <path
         inkscape:connector-curvature="0"
         id="rect4122"
         d="m 640.0065,746.78125 0.5,8.09375 -2.5,2.28125 -8.34375,-0.25 -0.15625,1.75 1.65625,0 0,12.625 -9.84375,0 0,-12.625 2.03125,0 0,-1.25 -5.3125,0 0,-2.03125 -13.375,0.25 0,-1.5 -29.96875,0 -0.0937,-2.78125 31.0625,0 0.75,-0.75 8.59375,0 0.5,-0.78125 5.8125,-0.75 3.03125,-2.03125 15.65625,-0.25 z"
         style="fill:#000000;fill-opacity:1;stroke:#000000;stroke-width:1;stroke-linecap:butt;stroke-linejoin:miter;stroke-miterlimit:4;stroke-dasharray:none;display:inline" />
      <path
         sodipodi:nodetypes="ccccc"
         inkscape:connector-curvature="0"
         id="path2991"
         d="m 674.86573,770.78216 -3.78807,-4.79822 -20.45559,0.12627 -4.41942,4.92449 z"
         style="fill:#000000;stroke:#000000;stroke-width:1px;stroke-linecap:butt;stroke-linejoin:miter;stroke-opacity:1;display:inline" />
      <path
         inkscape:connector-curvature="0"
         d="m 695.19505,707.90016 -18.05648,1.51523 -16.92005,-1.83089 M 1137.7681,768.50932 674.61319,704.86971 378.6385,760.93317"
         style="fill:none;stroke:#000000;stroke-width:1px;stroke-linecap:butt;stroke-linejoin:miter;stroke-opacity:1;display:inline"
         id="path4119" />
      <path
         inkscape:connector-curvature="0"
         id="path4021"
         d="m 335.7252,738.625 6.5313,0.96875 -6.8437,1.96875 0.031,-0.28125 -6.5312,1.875 0.1562,0.0312 -6.8125,1.96875 0.3125,-2.9375 6.2812,0.9375 0.3126,-2.90625 6.2812,0.9375 0.2812,-2.5625 z m 6.9688,1.03125 0,0.25 0.2188,-0.0625 35.625,21.34375 -1.5,0 -33.3438,-19.46875 5.7812,18.46875 -1.5312,0 -5.9062,-18.53125 -26.8126,8.375 2.6563,9.125 -1.5313,0 -2.6562,-8.65625 -25.5625,7.96875 0,-1.8125 54.5625,-17 z m -26.6562,4.78125 6.5312,0.96875 -6.75,1.9375 0.8438,0.125 -6.2188,1.8125 0.5,0.0625 -6.125,1.78125 -6.75,1.96875 0.3125,-2.9375 5.7813,0.875 0.2812,-2.65625 5.4375,0.8125 0.2813,-2.6875 5.5624,0.84375 0.3126,-2.90625 z m -24,7.78125 6.5,0.96875 -6.8126,1.96875 0.3126,-2.9375 z"
         style="fill:#1a1a1a;stroke:#000000;stroke-width:1px;stroke-linecap:butt;stroke-linejoin:miter;stroke-opacity:1;display:inline" />
      <path
         inkscape:connector-curvature="0"
         id="rect3951"
         d="m 307.5065,790.3125 0,3.71875 3.875,0 0,3.1875 4.2813,0 0,3.125 2.9687,0 0,2.96875 3.75,0 0,3.125 5.25,0 0,2.75 4.0313,0 0,2.34375 3.9062,0 0,2.5625 4.8438,0 0,6.71875 -6.25,0 0,-2.59375 -4.8438,0 0,-2.3125 -3.9062,0 0,-2.78125 -4.0313,0 0,-3.125 -5.25,0 0,-2.9375 -3.75,0 0,-3.125 -2.9687,0 0,-3.21875 -4.2813,0 0,-3.71875 -3.875,0 0,-6.6875 6.25,0 z"
         style="fill:#000000;fill-opacity:1;stroke:#000000;stroke-width:1;stroke-linecap:butt;stroke-linejoin:miter;stroke-miterlimit:4;stroke-dasharray:none;display:inline" />
      <path
         sodipodi:nodetypes="ccccc"
         inkscape:connector-curvature="0"
         id="path3018"
         d="m 1004.428,821.54233 c -8.11333,7.01693 -7.49626,17.30777 -25.25382,20.70812 l -440.42648,1.51523 c -7.8404,2.0219 -17.9196,-6.40432 -29.7995,-23.23351 z"
         style="fill:#000000;stroke:#000000;stroke-width:1px;stroke-linecap:butt;stroke-linejoin:miter;stroke-opacity:1;display:inline" />
      <path
         sodipodi:nodetypes="ccccccccccc"
         inkscape:connector-curvature="0"
         id="path2998"
         d="m 1252.2476,773.79076 c -37.1457,-2.55197 -39.7997,-2.42466 -126.7857,-5.35715 -244.98616,-1.01932 -533.60983,10.19493 -716.3203,-6.23731 -41.4241,-1.76968 -82.3639,-3.29716 -121.894,-4.11983 -8.1788,0.19322 -7.5079,9.51999 -4.2857,14.28571 28.4337,35.44451 47.7899,46.83448 68.3928,53.21429 36.5622,6.47943 114.0958,7.54754 173.0357,11.07143 l 446.4286,-1.42857 c 80.2653,-17.83594 167.235,-23.50279 251.0714,-34.64286 19.1089,-3.13733 26.6412,-6.75701 34.6429,-10.35714 8.7906,-8.54875 -1.0298,-15.23396 -4.2857,-16.42857 z"
         style="fill:#000000;stroke:#ffffff;stroke-width:1px;stroke-linecap:butt;stroke-linejoin:miter;stroke-opacity:1;display:inline" />
      <g
         transform="matrix(-1,0,0,1,1540.819,0)"
         id="g4151"
         style="display:inline">
        <path
           style="fill:none;stroke:#000000;stroke-width:1px;stroke-linecap:butt;stroke-linejoin:miter;stroke-opacity:1"
           d="m 946.42857,771.29075 4.28572,-12.67857 c 43.63094,0.2641 87.26191,-0.0979 130.89281,-5 l 6.0715,14.10715"
           id="path4129"
           inkscape:connector-curvature="0"
           sodipodi:nodetypes="cccc" />
        <rect
           style="fill:#000000;fill-opacity:1;stroke:#000000;stroke-width:1;stroke-linecap:butt;stroke-linejoin:miter;stroke-miterlimit:4;stroke-dasharray:none"
           id="rect4131"
           width="0.89285713"
           height="13.571428"
           x="950.17859"
           y="758.255" />
        <rect
           style="fill:#000000;fill-opacity:1;stroke:#000000;stroke-width:1;stroke-linecap:butt;stroke-linejoin:miter;stroke-miterlimit:4;stroke-dasharray:none"
           id="rect4131-6"
           width="0.89285713"
           height="13.571428"
           x="1081.6265"
           y="753.00397" />
      </g>
      <path
         sodipodi:nodetypes="ccc"
         inkscape:connector-curvature="0"
         id="path4129-5"
         d="m 954.99223,771.14358 -3.40769,-12.19081 c -77.89363,3.03712 -102.24924,3.18689 -197.82047,0.90113"
         style="fill:none;stroke:#000000;stroke-width:1.32797766px;stroke-linecap:butt;stroke-linejoin:miter;stroke-opacity:1;display:inline" />
      <rect
         transform="scale(-1,1)"
         y="758.01935"
         x="-951.65875"
         height="13.571428"
         width="0.89285713"
         id="rect4131-7"
         style="fill:#000000;fill-opacity:1;stroke:#000000;stroke-width:1;stroke-linecap:butt;stroke-linejoin:miter;stroke-miterlimit:4;stroke-dasharray:none;display:inline" />
      <g
         transform="matrix(-1,0,0,1,1539.3926,0)"
         id="g4243">
        <path
           style="fill:#000000;stroke:#ffffff;stroke-width:1px;stroke-linecap:butt;stroke-linejoin:miter;stroke-opacity:1"
           d="m 904.08653,769.01439 20.32932,-0.12627 0.12627,5.05077 c -6.61655,1.59904 -13.50555,1.1547 -20.45559,0.25254 z"
           id="path3793"
           inkscape:connector-curvature="0"
           sodipodi:nodetypes="ccccc" />
        <rect
           style="fill:#000000;fill-opacity:1;stroke:#ffffff;stroke-width:1;stroke-linecap:butt;stroke-linejoin:miter;stroke-miterlimit:4;stroke-dasharray:none"
           id="rect3795"
           width="8.586297"
           height="18.182745"
           x="821.12775"
           y="749.44269" />
        <rect
           style="fill:#000000;fill-opacity:1;stroke:#ffffff;stroke-width:1;stroke-linecap:butt;stroke-linejoin:miter;stroke-miterlimit:4;stroke-dasharray:none"
           id="rect3795-7"
           width="8.586297"
           height="18.182745"
           x="795.74768"
           y="749.44269" />
        <path
           style="fill:#000000;stroke:#ffffff;stroke-width:1;stroke-linecap:butt;stroke-linejoin:miter;stroke-miterlimit:4;stroke-opacity:1;stroke-dasharray:none"
           d="m 803.50276,744.70893 2.73355,3.46249 14.76115,-0.0912 3.18913,-3.55359 z"
           id="path2991-4"
           inkscape:connector-curvature="0"
           sodipodi:nodetypes="ccccc" />
        <rect
           style="fill:#ffffff;fill-opacity:1;stroke:#ffffff;stroke-width:0.80769229;stroke-linecap:butt;stroke-linejoin:miter;stroke-miterlimit:4;stroke-dasharray:none"
           id="rect4213"
           width="4.3269229"
           height="1.4423077"
           x="332.22525"
           y="779.05176" />
        <rect
           style="fill:#ffffff;fill-opacity:1;stroke:#ffffff;stroke-width:0.80769229;stroke-linecap:butt;stroke-linejoin:miter;stroke-miterlimit:4;stroke-dasharray:none"
           id="rect4213-1"
           width="4.3269229"
           height="1.4423077"
           x="338.28296"
           y="779.05176" />
        <path
           inkscape:connector-curvature="0"
           style="fill:#ffffff;fill-opacity:1;stroke:#ffffff;stroke-width:0.82859945;stroke-linecap:butt;stroke-linejoin:miter;stroke-miterlimit:4;stroke-dasharray:none"
           d="m 352.03125,779.46875 0,1.4375 4.625,0 0,-1.4375 -4.625,0 z m 6.46875,0 0,1.4375 4.625,0 0,-1.4375 -4.625,0 z m 6.5,0 0,1.4375 4.625,0 0,-1.4375 -4.625,0 z m 6.46875,0 0,1.4375 4.625,0 0,-1.4375 -4.625,0 z m 6.5,0 0,1.4375 4.625,0 0,-1.4375 -4.625,0 z"
           id="rect4213-2" />
        <path
           inkscape:connector-curvature="0"
           style="fill:#ffffff;fill-opacity:1;stroke:#ffffff;stroke-width:0.82859945;stroke-linecap:butt;stroke-linejoin:miter;stroke-miterlimit:4;stroke-dasharray:none"
           d="m 389.2652,779.47367 0,1.4375 4.625,0 0,-1.4375 -4.625,0 z m 6.46875,0 0,1.4375 4.625,0 0,-1.4375 -4.625,0 z m 6.5,0 0,1.4375 4.625,0 0,-1.4375 -4.625,0 z m 6.46875,0 0,1.4375 4.625,0 0,-1.4375 -4.625,0 z m 6.5,0 0,1.4375 4.625,0 0,-1.4375 -4.625,0 z"
           id="rect4213-2-1" />
        <path
           inkscape:connector-curvature="0"
           style="fill:#ffffff;fill-opacity:1;stroke:#ffffff;stroke-width:0.82859945;stroke-linecap:butt;stroke-linejoin:miter;stroke-miterlimit:4;stroke-dasharray:none"
           d="m 427.47949,779.65224 0,1.4375 4.625,0 0,-1.4375 -4.625,0 z m 6.46875,0 0,1.4375 4.625,0 0,-1.4375 -4.625,0 z m 6.5,0 0,1.4375 4.625,0 0,-1.4375 -4.625,0 z m 6.46875,0 0,1.4375 4.625,0 0,-1.4375 -4.625,0 z m 6.5,0 0,1.4375 4.625,0 0,-1.4375 -4.625,0 z"
           id="rect4213-2-2" />
        <path
           inkscape:connector-curvature="0"
           style="fill:#ffffff;fill-opacity:1;stroke:#ffffff;stroke-width:0.82859945;stroke-linecap:butt;stroke-linejoin:miter;stroke-miterlimit:4;stroke-dasharray:none"
           d="m 465.5152,779.65224 0,1.4375 4.625,0 0,-1.4375 -4.625,0 z m 6.46875,0 0,1.4375 4.625,0 0,-1.4375 -4.625,0 z m 6.5,0 0,1.4375 4.625,0 0,-1.4375 -4.625,0 z m 6.46875,0 0,1.4375 4.625,0 0,-1.4375 -4.625,0 z m 6.5,0 0,1.4375 4.625,0 0,-1.4375 -4.625,0 z"
           id="rect4213-2-3" />
        <path
           inkscape:connector-curvature="0"
           style="fill:#ffffff;fill-opacity:1;stroke:#ffffff;stroke-width:0.82859945;stroke-linecap:butt;stroke-linejoin:miter;stroke-miterlimit:4;stroke-dasharray:none"
           d="m 503.60537,780.18795 0,1.4375 4.625,0 0,-1.4375 -4.625,0 z m 6.46875,0 0,1.4375 4.625,0 0,-1.4375 -4.625,0 z m 6.5,0 0,1.4375 4.625,0 0,-1.4375 -4.625,0 z m 6.46875,0 0,1.4375 4.625,0 0,-1.4375 -4.625,0 z m 6.5,0 0,1.4375 4.625,0 0,-1.4375 -4.625,0 z"
           id="rect4213-2-34" />
        <path
           inkscape:connector-curvature="0"
           style="fill:#ffffff;fill-opacity:1;stroke:#ffffff;stroke-width:0.82859945;stroke-linecap:butt;stroke-linejoin:miter;stroke-miterlimit:4;stroke-dasharray:none"
           d="m 540.9268,780.72367 0,1.4375 4.625,0 0,-1.4375 -4.625,0 z m 6.46875,0 0,1.4375 4.625,0 0,-1.4375 -4.625,0 z m 6.5,0 0,1.4375 4.625,0 0,-1.4375 -4.625,0 z m 6.46875,0 0,1.4375 4.625,0 0,-1.4375 -4.625,0 z m 6.5,0 0,1.4375 4.625,0 0,-1.4375 -4.625,0 z"
           id="rect4213-2-11" />
        <path
           inkscape:connector-curvature="0"
           style="fill:#ffffff;fill-opacity:1;stroke:#ffffff;stroke-width:0.82859945;stroke-linecap:butt;stroke-linejoin:miter;stroke-miterlimit:4;stroke-dasharray:none"
           d="m 579.31966,780.72367 0,1.4375 4.625,0 0,-1.4375 -4.625,0 z m 6.46875,0 0,1.4375 4.625,0 0,-1.4375 -4.625,0 z m 6.5,0 0,1.4375 4.625,0 0,-1.4375 -4.625,0 z m 6.46875,0 0,1.4375 4.625,0 0,-1.4375 -4.625,0 z m 6.5,0 0,1.4375 4.625,0 0,-1.4375 -4.625,0 z"
           id="rect4213-2-38" />
        <path
           inkscape:connector-curvature="0"
           style="fill:#ffffff;fill-opacity:1;stroke:#ffffff;stroke-width:0.82859945;stroke-linecap:butt;stroke-linejoin:miter;stroke-miterlimit:4;stroke-dasharray:none"
           d="m 616.46252,780.90224 0,1.4375 4.625,0 0,-1.4375 -4.625,0 z m 6.46875,0 0,1.4375 4.625,0 0,-1.4375 -4.625,0 z m 6.5,0 0,1.4375 4.625,0 0,-1.4375 -4.625,0 z m 6.46875,0 0,1.4375 4.625,0 0,-1.4375 -4.625,0 z m 6.5,0 0,1.4375 4.625,0 0,-1.4375 -4.625,0 z"
           id="rect4213-2-38-7" />
        <path
           inkscape:connector-curvature="0"
           style="fill:#ffffff;fill-opacity:1;stroke:#ffffff;stroke-width:0.82859945;stroke-linecap:butt;stroke-linejoin:miter;stroke-miterlimit:4;stroke-dasharray:none"
           d="m 648.60538,780.90224 0,1.4375 4.625,0 0,-1.4375 -4.625,0 z m 6.46875,0 0,1.4375 4.625,0 0,-1.4375 -4.625,0 z m 6.5,0 0,1.4375 4.625,0 0,-1.4375 -4.625,0 z m 6.46875,0 0,1.4375 4.625,0 0,-1.4375 -4.625,0 z m 6.5,0 0,1.4375 4.625,0 0,-1.4375 -4.625,0 z"
           id="rect4213-2-38-7-4" />
        <path
           inkscape:connector-curvature="0"
           style="fill:#ffffff;fill-opacity:1;stroke:#ffffff;stroke-width:0.82859945;stroke-linecap:butt;stroke-linejoin:miter;stroke-miterlimit:4;stroke-dasharray:none"
           d="m 681.28395,780.90224 0,1.4375 4.625,0 0,-1.4375 -4.625,0 z m 6.46875,0 0,1.4375 4.625,0 0,-1.4375 -4.625,0 z m 6.5,0 0,1.4375 4.625,0 0,-1.4375 -4.625,0 z m 6.46875,0 0,1.4375 4.625,0 0,-1.4375 -4.625,0 z m 6.5,0 0,1.4375 4.625,0 0,-1.4375 -4.625,0 z"
           id="rect4213-2-38-7-2" />
        <path
           inkscape:connector-curvature="0"
           style="fill:#ffffff;fill-opacity:1;stroke:#ffffff;stroke-width:0.82859945;stroke-linecap:butt;stroke-linejoin:miter;stroke-miterlimit:4;stroke-dasharray:none"
           d="m 713.75385,780.74221 0,1.4375 4.625,0 0,-1.4375 -4.625,0 z"
           id="path4424" />
        <path
           inkscape:connector-curvature="0"
           style="fill:#ffffff;fill-opacity:1;stroke:#ffffff;stroke-width:0.82859945;stroke-linecap:butt;stroke-linejoin:miter;stroke-miterlimit:4;stroke-dasharray:none"
           d="m 720.2226,780.74221 0,1.4375 4.625,0 0,-1.4375 -4.625,0 z"
           id="path4422" />
        <path
           inkscape:connector-curvature="0"
           style="fill:#ffffff;fill-opacity:1;stroke:#ffffff;stroke-width:0.82859945;stroke-linecap:butt;stroke-linejoin:miter;stroke-miterlimit:4;stroke-dasharray:none"
           d="m 726.7226,780.74221 0,1.4375 4.625,0 0,-1.4375 -4.625,0 z"
           id="path4420" />
        <path
           inkscape:connector-curvature="0"
           style="fill:#ffffff;fill-opacity:1;stroke:#ffffff;stroke-width:0.82859945;stroke-linecap:butt;stroke-linejoin:miter;stroke-miterlimit:4;stroke-dasharray:none"
           d="m 733.19135,780.74221 0,1.4375 4.625,0 0,-1.4375 -4.625,0 z"
           id="path4418" />
        <path
           inkscape:connector-curvature="0"
           style="fill:#ffffff;fill-opacity:1;stroke:#ffffff;stroke-width:0.83766514;stroke-linecap:butt;stroke-linejoin:miter;stroke-miterlimit:4;stroke-dasharray:none"
           d="m 742.46415,780.95965 0,1.42926 4.75402,0 0,-1.42926 -4.75402,0 z m 6.6492,0 0,1.42926 4.75401,0 0,-1.42926 -4.75401,0 z m 6.68132,0 0,1.42926 4.75401,0 0,-1.42926 -4.75401,0 z m 6.64919,0 0,1.42926 4.75402,0 0,-1.42926 -4.75402,0 z m 6.68132,0 0,1.42926 4.75402,0 0,-1.42926 -4.75402,0 z"
           id="rect4213-2-38-7-7" />
        <path
           inkscape:connector-curvature="0"
           style="fill:#ffffff;fill-opacity:1;stroke:#ffffff;stroke-width:0.83766514;stroke-linecap:butt;stroke-linejoin:miter;stroke-miterlimit:4;stroke-dasharray:none"
           d="m 775.93928,781.10248 0,1.42926 4.75401,0 0,-1.42926 -4.75401,0 z m 6.64919,0 0,1.42926 4.75402,0 0,-1.42926 -4.75402,0 z m 6.68132,0 0,1.42926 4.75402,0 0,-1.42926 -4.75402,0 z m 6.6492,0 0,1.42926 4.75401,0 0,-1.42926 -4.75401,0 z m 6.68132,0 0,1.42926 4.75401,0 0,-1.42926 -4.75401,0 z"
           id="rect4213-2-38-7-9" />
        <path
           inkscape:connector-curvature="0"
           style="fill:#ffffff;fill-opacity:1;stroke:#ffffff;stroke-width:0.83766514;stroke-linecap:butt;stroke-linejoin:miter;stroke-miterlimit:4;stroke-dasharray:none"
           d="m 809.58678,781.10248 0,1.42926 4.75401,0 0,-1.42926 -4.75401,0 z"
           id="path4422-3" />
        <path
           inkscape:connector-curvature="0"
           style="fill:#ffffff;fill-opacity:1;stroke:#ffffff;stroke-width:0.83766514;stroke-linecap:butt;stroke-linejoin:miter;stroke-miterlimit:4;stroke-dasharray:none"
           d="m 816.26809,781.10248 0,1.42926 4.75402,0 0,-1.42926 -4.75402,0 z"
           id="path4420-1" />
        <path
           inkscape:connector-curvature="0"
           style="fill:#ffffff;fill-opacity:1;stroke:#ffffff;stroke-width:0.83766514;stroke-linecap:butt;stroke-linejoin:miter;stroke-miterlimit:4;stroke-dasharray:none"
           d="m 822.91729,781.10248 0,1.42926 4.75402,0 0,-1.42926 -4.75402,0 z"
           id="path4418-9" />
        <path
           inkscape:connector-curvature="0"
           style="fill:#ffffff;fill-opacity:1;stroke:#ffffff;stroke-width:0.83766514;stroke-linecap:butt;stroke-linejoin:miter;stroke-miterlimit:4;stroke-dasharray:none"
           d="m 742.34682,784.42434 0,1.42926 4.75402,0 0,-1.42926 -4.75402,0 z m 6.6492,0 0,1.42926 4.75401,0 0,-1.42926 -4.75401,0 z m 6.68132,0 0,1.42926 4.75401,0 0,-1.42926 -4.75401,0 z m 6.64919,0 0,1.42926 4.75402,0 0,-1.42926 -4.75402,0 z m 6.68132,0 0,1.42926 4.75402,0 0,-1.42926 -4.75402,0 z"
           id="rect4213-2-38-7-7-8" />
        <path
           inkscape:connector-curvature="0"
           style="fill:#ffffff;fill-opacity:1;stroke:#ffffff;stroke-width:0.83766514;stroke-linecap:butt;stroke-linejoin:miter;stroke-miterlimit:4;stroke-dasharray:none"
           d="m 775.82195,784.56717 0,1.42926 4.75401,0 0,-1.42926 -4.75401,0 z m 6.64919,0 0,1.42926 4.75402,0 0,-1.42926 -4.75402,0 z m 6.68132,0 0,1.42926 4.75402,0 0,-1.42926 -4.75402,0 z m 6.6492,0 0,1.42926 4.75401,0 0,-1.42926 -4.75401,0 z m 6.68132,0 0,1.42926 4.75401,0 0,-1.42926 -4.75401,0 z"
           id="rect4213-2-38-7-9-6" />
        <path
           inkscape:connector-curvature="0"
           style="fill:#ffffff;fill-opacity:1;stroke:#ffffff;stroke-width:0.83766514;stroke-linecap:butt;stroke-linejoin:miter;stroke-miterlimit:4;stroke-dasharray:none"
           d="m 809.46945,784.56717 0,1.42926 4.75401,0 0,-1.42926 -4.75401,0 z"
           id="path4422-3-5" />
        <path
           inkscape:connector-curvature="0"
           style="fill:#ffffff;fill-opacity:1;stroke:#ffffff;stroke-width:0.83766514;stroke-linecap:butt;stroke-linejoin:miter;stroke-miterlimit:4;stroke-dasharray:none"
           d="m 816.15076,784.56717 0,1.42926 4.75402,0 0,-1.42926 -4.75402,0 z"
           id="path4420-1-0" />
        <path
           inkscape:connector-curvature="0"
           style="fill:#ffffff;fill-opacity:1;stroke:#ffffff;stroke-width:0.83766514;stroke-linecap:butt;stroke-linejoin:miter;stroke-miterlimit:4;stroke-dasharray:none"
           d="m 822.79996,784.56717 0,1.42926 4.75402,0 0,-1.42926 -4.75402,0 z"
           id="path4418-9-2" />
        <path
           inkscape:connector-curvature="0"
           style="fill:#ffffff;fill-opacity:1;stroke:#ffffff;stroke-width:0.83766514;stroke-linecap:butt;stroke-linejoin:miter;stroke-miterlimit:4;stroke-dasharray:none"
           d="m 742.33879,791.78461 0,1.42926 4.75402,0 0,-1.42926 -4.75402,0 z m 6.6492,0 0,1.42926 4.75402,0 0,-1.42926 -4.75402,0 z m 6.68133,0 0,1.42926 4.75401,0 0,-1.42926 -4.75401,0 z m 6.64919,0 0,1.42926 4.75402,0 0,-1.42926 -4.75402,0 z m 6.68132,0 0,1.42926 4.75402,0 0,-1.42926 -4.75402,0 z"
           id="rect4213-2-38-7-7-86" />
        <path
           inkscape:connector-curvature="0"
           style="fill:#ffffff;fill-opacity:1;stroke:#ffffff;stroke-width:0.83766514;stroke-linecap:butt;stroke-linejoin:miter;stroke-miterlimit:4;stroke-dasharray:none"
           d="m 775.81393,791.92744 0,1.42926 4.75401,0 0,-1.42926 -4.75401,0 z m 6.64919,0 0,1.42926 4.75402,0 0,-1.42926 -4.75402,0 z m 6.68132,0 0,1.42926 4.75402,0 0,-1.42926 -4.75402,0 z m 6.6492,0 0,1.42926 4.75401,0 0,-1.42926 -4.75401,0 z m 6.68132,0 0,1.42926 4.75401,0 0,-1.42926 -4.75401,0 z"
           id="rect4213-2-38-7-9-0" />
        <path
           inkscape:connector-curvature="0"
           style="fill:#ffffff;fill-opacity:1;stroke:#ffffff;stroke-width:0.83766514;stroke-linecap:butt;stroke-linejoin:miter;stroke-miterlimit:4;stroke-dasharray:none"
           d="m 809.46143,791.92744 0,1.42926 4.75401,0 0,-1.42926 -4.75401,0 z"
           id="path4422-3-2" />
        <path
           inkscape:connector-curvature="0"
           style="fill:#ffffff;fill-opacity:1;stroke:#ffffff;stroke-width:0.83766514;stroke-linecap:butt;stroke-linejoin:miter;stroke-miterlimit:4;stroke-dasharray:none"
           d="m 816.14274,791.92744 0,1.42926 4.75402,0 0,-1.42926 -4.75402,0 z"
           id="path4420-1-4" />
        <path
           inkscape:connector-curvature="0"
           style="fill:#ffffff;fill-opacity:1;stroke:#ffffff;stroke-width:0.83766514;stroke-linecap:butt;stroke-linejoin:miter;stroke-miterlimit:4;stroke-dasharray:none"
           d="m 822.79194,791.92744 0,1.42926 4.75402,0 0,-1.42926 -4.75402,0 z"
           id="path4418-9-8" />
        <path
           inkscape:connector-curvature="0"
           id="path4418-9-0-4-9"
           style="fill:#ffffff;fill-opacity:1;stroke:#ffffff;stroke-width:0.83374256;stroke-linecap:butt;stroke-linejoin:miter;stroke-miterlimit:4;stroke-dasharray:none"
           d="m 942.74273,778.45787 0,1.43282 4.69788,0 0,-1.43282 -4.69788,0 z m -6.57068,0 0,1.43282 4.69788,0 0,-1.43282 -4.69788,0 z m -6.54309,0 0,1.43282 4.69788,0 0,-1.43282 -4.69788,0 z m -6.57068,0 0,1.43282 4.69788,0 0,-1.43282 -4.69788,0 z m -6.60241,0 0,1.43282 4.69787,0 0,-1.43282 -4.69787,0 z m -6.83593,0.0835 0,1.43282 4.69788,0 0,-1.43282 -4.69788,0 z m -6.57068,0 0,1.43282 4.69788,0 0,-1.43282 -4.69788,0 z m -6.60241,0 0,1.43282 4.69787,0 0,-1.43282 -4.69787,0 z m -33.25015,0 0,1.43282 4.69787,0 0,-1.43282 -4.69787,0 z m 6.57067,0 0,1.43282 4.69788,0 0,-1.43282 -4.69788,0 z m 6.60242,0 0,1.43282 4.69788,0 0,-1.43282 -4.69788,0 z m 6.57068,0 0,1.43282 4.69787,0 0,-1.43282 -4.69787,0 z m 6.60242,0 0,1.43282 4.69787,0 0,-1.43282 -4.69787,0 z m -59.426,-0.14319 0,1.43282 4.69788,0 0,-1.43282 -4.69788,0 z m 6.57068,0 0,1.43282 4.69787,0 0,-1.43282 -4.69787,0 z m 6.60242,0 0,1.43282 4.69786,0 0,-1.43282 -4.69786,0 z m 6.57066,0 0,1.43282 4.69788,0 0,-1.43282 -4.69788,0 z m 6.60242,0 0,1.43282 4.69788,0 0,-1.43282 -4.69788,0 z" />
        <path
           inkscape:connector-curvature="0"
           id="path4418-9-0-4-9-4"
           style="fill:#ffffff;fill-opacity:1;stroke:#ffffff;stroke-width:0.83374256;stroke-linecap:butt;stroke-linejoin:miter;stroke-miterlimit:4;stroke-dasharray:none"
           d="m 942.73731,781.72896 0,1.43282 4.69788,0 0,-1.43282 -4.69788,0 z m -6.57068,0 0,1.43282 4.69788,0 0,-1.43282 -4.69788,0 z m -6.54309,0 0,1.43282 4.69788,0 0,-1.43282 -4.69788,0 z m -6.57068,0 0,1.43282 4.69788,0 0,-1.43282 -4.69788,0 z m -6.60241,0 0,1.43282 4.69787,0 0,-1.43282 -4.69787,0 z m -6.83593,0.0835 0,1.43282 4.69788,0 0,-1.43282 -4.69788,0 z m -6.57068,0 0,1.43282 4.69788,0 0,-1.43282 -4.69788,0 z m -6.60241,0 0,1.43282 4.69787,0 0,-1.43282 -4.69787,0 z m -33.25015,0 0,1.43282 4.69787,0 0,-1.43282 -4.69787,0 z m 6.57067,0 0,1.43282 4.69788,0 0,-1.43282 -4.69788,0 z m 6.60242,0 0,1.43282 4.69788,0 0,-1.43282 -4.69788,0 z m 6.57068,0 0,1.43282 4.69787,0 0,-1.43282 -4.69787,0 z m 6.60242,0 0,1.43282 4.69787,0 0,-1.43282 -4.69787,0 z m -59.426,-0.14319 0,1.43282 4.69788,0 0,-1.43282 -4.69788,0 z m 6.57068,0 0,1.43282 4.69787,0 0,-1.43282 -4.69787,0 z m 6.60242,0 0,1.43282 4.69786,0 0,-1.43282 -4.69786,0 z m 6.57066,0 0,1.43282 4.69788,0 0,-1.43282 -4.69788,0 z m 6.60242,0 0,1.43282 4.69788,0 0,-1.43282 -4.69788,0 z" />
        <path
           inkscape:connector-curvature="0"
           style="fill:#ffffff;fill-opacity:1;stroke:#ffffff;stroke-width:0.83766514;stroke-linecap:butt;stroke-linejoin:miter;stroke-miterlimit:4;stroke-dasharray:none"
           d="m 956.3884,781.50681 0,1.42926 4.75402,0 0,-1.42926 -4.75402,0 z m 6.6492,0 0,1.42926 4.75402,0 0,-1.42926 -4.75402,0 z m 6.68133,0 0,1.42926 4.75401,0 0,-1.42926 -4.75401,0 z m 6.64919,0 0,1.42926 4.75402,0 0,-1.42926 -4.75402,0 z m 6.68132,0 0,1.42926 4.75402,0 0,-1.42926 -4.75402,0 z"
           id="rect4213-2-38-7-7-86-8" />
        <path
           inkscape:connector-curvature="0"
           style="fill:#ffffff;fill-opacity:1;stroke:#ffffff;stroke-width:0.83766514;stroke-linecap:butt;stroke-linejoin:miter;stroke-miterlimit:4;stroke-dasharray:none"
           d="m 993.95607,781.50681 0,1.42926 4.754,0 0,-1.42926 -4.754,0 z m 6.64923,0 0,1.42926 4.754,0 0,-1.42926 -4.754,0 z m 6.6813,0 0,1.42926 4.754,0 0,-1.42926 -4.754,0 z m 6.6492,0 0,1.42926 4.754,0 0,-1.42926 -4.754,0 z m 6.6813,0 0,1.42926 4.7541,0 0,-1.42926 -4.7541,0 z"
           id="rect4213-2-38-7-7-86-8-8" />
        <path
           inkscape:connector-curvature="0"
           style="fill:#ffffff;fill-opacity:1;stroke:#ffffff;stroke-width:0.83766514;stroke-linecap:butt;stroke-linejoin:miter;stroke-miterlimit:4;stroke-dasharray:none"
           d="m 1031.3317,781.50681 0,1.42926 4.754,0 0,-1.42926 -4.754,0 z m 6.6492,0 0,1.42926 4.754,0 0,-1.42926 -4.754,0 z m 6.6813,0 0,1.42926 4.754,0 0,-1.42926 -4.754,0 z m 6.6492,0 0,1.42926 4.754,0 0,-1.42926 -4.754,0 z m 6.6813,0 0,1.42926 4.7541,0 0,-1.42926 -4.7541,0 z"
           id="rect4213-2-38-7-7-86-8-2" />
        <path
           inkscape:connector-curvature="0"
           style="fill:#ffffff;fill-opacity:1;stroke:#ffffff;stroke-width:0.83766514;stroke-linecap:butt;stroke-linejoin:miter;stroke-miterlimit:4;stroke-dasharray:none"
           d="m 1069.7175,781.50681 0,1.42926 4.754,0 0,-1.42926 -4.754,0 z m 6.6492,0 0,1.42926 4.754,0 0,-1.42926 -4.754,0 z m 6.6813,0 0,1.42926 4.754,0 0,-1.42926 -4.754,0 z m 6.6492,0 0,1.42926 4.754,0 0,-1.42926 -4.754,0 z m 6.6813,0 0,1.42926 4.7541,0 0,-1.42926 -4.7541,0 z"
           id="rect4213-2-38-7-7-86-8-4" />
        <path
           inkscape:connector-curvature="0"
           style="fill:#ffffff;fill-opacity:1;stroke:#ffffff;stroke-width:0.83766514;stroke-linecap:butt;stroke-linejoin:miter;stroke-miterlimit:4;stroke-dasharray:none"
           d="m 1107.5982,781.50681 0,1.42926 4.754,0 0,-1.42926 -4.754,0 z"
           id="path3184" />
        <path
           inkscape:connector-curvature="0"
           style="fill:#ffffff;fill-opacity:1;stroke:#ffffff;stroke-width:0.83766514;stroke-linecap:butt;stroke-linejoin:miter;stroke-miterlimit:4;stroke-dasharray:none"
           d="m 1114.2474,781.50681 0,1.42926 4.754,0 0,-1.42926 -4.754,0 z"
           id="path3182" />
        <path
           inkscape:connector-curvature="0"
           style="fill:#ffffff;fill-opacity:1;stroke:#ffffff;stroke-width:0.83766514;stroke-linecap:butt;stroke-linejoin:miter;stroke-miterlimit:4;stroke-dasharray:none"
           d="m 1120.9287,781.50681 0,1.42926 4.754,0 0,-1.42926 -4.754,0 z"
           id="path3180" />
        <path
           style="fill:#ffffff;fill-opacity:1;stroke:#ffffff;stroke-width:0.83766514;stroke-linecap:butt;stroke-linejoin:miter;stroke-miterlimit:4;stroke-dasharray:none"
           d="m 1127.5779,779.50681 0,1.42926 4.754,0 0,-1.42926 -4.754,0 z"
           id="path3178"
           inkscape:connector-curvature="0" />
        <path
           style="fill:#ffffff;fill-opacity:1;stroke:#ffffff;stroke-width:0.83766514;stroke-linecap:butt;stroke-linejoin:miter;stroke-miterlimit:4;stroke-dasharray:none"
           d="m 1134.2592,779.50681 0,1.42926 4.7541,0 0,-1.42926 -4.7541,0 z"
           id="rect4213-2-38-7-7-86-8-5"
           inkscape:connector-curvature="0" />
        <path
           style="fill:#ffffff;fill-opacity:1;stroke:#ffffff;stroke-width:0.83766514;stroke-linecap:butt;stroke-linejoin:miter;stroke-miterlimit:4;stroke-dasharray:none"
           d="m 1146.6299,779.71874 0,1.42926 4.754,0 0,-1.42926 -4.754,0 z"
           id="path3178-5"
           inkscape:connector-curvature="0" />
        <path
           style="fill:#ffffff;fill-opacity:1;stroke:#ffffff;stroke-width:0.83766514;stroke-linecap:butt;stroke-linejoin:miter;stroke-miterlimit:4;stroke-dasharray:none"
           d="m 1153.3112,779.71874 0,1.42926 4.7541,0 0,-1.42926 -4.7541,0 z"
           id="rect4213-2-38-7-7-86-8-5-1"
           inkscape:connector-curvature="0" />
        <path
           style="fill:#ffffff;fill-opacity:1;stroke:#ffffff;stroke-width:0.75394928;stroke-linecap:butt;stroke-linejoin:miter;stroke-miterlimit:4;stroke-dasharray:none"
           d="m 1064.6589,771.43339 -0.5682,1.51298 3.6382,0 -0.5682,-1.57611 z"
           id="path3178-5-7"
           inkscape:connector-curvature="0"
           sodipodi:nodetypes="ccccc" />
        <path
           style="fill:#ffffff;fill-opacity:1;stroke:#ffffff;stroke-width:0.75394928;stroke-linecap:butt;stroke-linejoin:miter;stroke-miterlimit:4;stroke-dasharray:none"
           d="m 1102.7751,768.36741 -0.5682,1.51298 3.6382,0 -0.5682,-1.57611 z"
           id="path3178-5-7-1"
           inkscape:connector-curvature="0"
           sodipodi:nodetypes="ccccc" />
        <path
           style="fill:#ffffff;fill-opacity:1;stroke:#ffffff;stroke-width:0.75394928;stroke-linecap:butt;stroke-linejoin:miter;stroke-miterlimit:4;stroke-dasharray:none"
           d="m 1141.1609,765.21069 -0.5682,1.51298 3.6382,0 -0.5682,-1.57611 z"
           id="path3178-5-7-15"
           inkscape:connector-curvature="0"
           sodipodi:nodetypes="ccccc" />
        <path
           style="fill:#ffffff;fill-opacity:1;stroke:#ffffff;stroke-width:0.75394928;stroke-linecap:butt;stroke-linejoin:miter;stroke-miterlimit:4;stroke-dasharray:none"
           d="m 1180.2608,763.82173 -0.5682,1.51298 3.6382,0 -0.5682,-1.57611 z"
           id="path3178-5-7-2"
           inkscape:connector-curvature="0"
           sodipodi:nodetypes="ccccc" />
        <path
           style="fill:#ffffff;fill-opacity:1;stroke:#ffffff;stroke-width:0.75394928;stroke-linecap:butt;stroke-linejoin:miter;stroke-miterlimit:4;stroke-dasharray:none"
           d="m 1228.1168,762.43277 -0.5682,1.51298 3.6382,0 -0.5682,-1.57611 z"
           id="path3178-5-7-7"
           inkscape:connector-curvature="0"
           sodipodi:nodetypes="ccccc" />
        <path
           style="fill:#ffffff;fill-opacity:1;stroke:#ffffff;stroke-width:0.75394928;stroke-linecap:butt;stroke-linejoin:miter;stroke-miterlimit:4;stroke-dasharray:none"
           d="m 1026.7404,771.65041 -0.5682,1.51298 3.6382,0 -0.5682,-1.57611 z"
           id="path3178-5-7-6"
           inkscape:connector-curvature="0"
           sodipodi:nodetypes="ccccc" />
        <path
           style="fill:#ffffff;fill-opacity:1;stroke:#ffffff;stroke-width:0.75394928;stroke-linecap:butt;stroke-linejoin:miter;stroke-miterlimit:4;stroke-dasharray:none"
           d="m 989.23848,772.28175 -0.5682,1.51298 3.6382,0 -0.5682,-1.57611 z"
           id="path3178-5-7-14"
           inkscape:connector-curvature="0"
           sodipodi:nodetypes="ccccc" />
        <path
           style="fill:#ffffff;fill-opacity:1;stroke:#ffffff;stroke-width:0.75394928;stroke-linecap:butt;stroke-linejoin:miter;stroke-miterlimit:4;stroke-dasharray:none"
           d="m 950.47387,773.29191 -0.5682,1.51298 3.6382,0 -0.5682,-1.57611 z"
           id="path3178-5-7-23"
           inkscape:connector-curvature="0"
           sodipodi:nodetypes="ccccc" />
        <path
           style="fill:#ffffff;fill-opacity:1;stroke:#ffffff;stroke-width:0.75394928;stroke-linecap:butt;stroke-linejoin:miter;stroke-miterlimit:4;stroke-dasharray:none"
           d="m 747.67766,774.85154 -0.5682,1.51298 3.6382,0 -0.5682,-1.57611 z"
           id="path3178-5-7-22"
           inkscape:connector-curvature="0"
           sodipodi:nodetypes="ccccc" />
        <path
           style="fill:#ffffff;fill-opacity:1;stroke:#ffffff;stroke-width:0.75394928;stroke-linecap:butt;stroke-linejoin:miter;stroke-miterlimit:4;stroke-dasharray:none"
           d="m 612.02118,774.14357 -0.5682,1.51298 3.6382,0 -0.5682,-1.57611 z"
           id="path3178-5-7-16"
           inkscape:connector-curvature="0"
           sodipodi:nodetypes="ccccc" />
        <path
           style="fill:#ffffff;fill-opacity:1;stroke:#ffffff;stroke-width:0.75394928;stroke-linecap:butt;stroke-linejoin:miter;stroke-miterlimit:4;stroke-dasharray:none"
           d="m 574.98263,773.78643 -0.5682,1.51298 3.6382,0 -0.5682,-1.57611 z"
           id="path3178-5-7-8"
           inkscape:connector-curvature="0"
           sodipodi:nodetypes="ccccc" />
        <path
           style="fill:#ffffff;fill-opacity:1;stroke:#ffffff;stroke-width:0.75394928;stroke-linecap:butt;stroke-linejoin:miter;stroke-miterlimit:4;stroke-dasharray:none"
           d="m 536.23263,774.14357 -0.5682,1.51298 3.6382,0 -0.5682,-1.57611 z"
           id="path3178-5-7-5"
           inkscape:connector-curvature="0"
           sodipodi:nodetypes="ccccc" />
        <path
           style="fill:#ffffff;fill-opacity:1;stroke:#ffffff;stroke-width:0.75394928;stroke-linecap:butt;stroke-linejoin:miter;stroke-miterlimit:4;stroke-dasharray:none"
           d="m 498.55406,773.42929 -0.5682,1.51298 3.6382,0 -0.5682,-1.57611 z"
           id="path3178-5-7-76"
           inkscape:connector-curvature="0"
           sodipodi:nodetypes="ccccc" />
        <path
           style="fill:#ffffff;fill-opacity:1;stroke:#ffffff;stroke-width:0.75394928;stroke-linecap:butt;stroke-linejoin:miter;stroke-miterlimit:4;stroke-dasharray:none"
           d="m 460.33977,772.715 -0.5682,1.51298 3.6382,0 -0.5682,-1.57611 z"
           id="path3178-5-7-18"
           inkscape:connector-curvature="0"
           sodipodi:nodetypes="ccccc" />
        <path
           style="fill:#ffffff;fill-opacity:1;stroke:#ffffff;stroke-width:0.75394928;stroke-linecap:butt;stroke-linejoin:miter;stroke-miterlimit:4;stroke-dasharray:none"
           d="m 421.76834,772.53643 -0.5682,1.51298 3.6382,0 -0.5682,-1.57611 z"
           id="path3178-5-7-9"
           inkscape:connector-curvature="0"
           sodipodi:nodetypes="ccccc" />
        <path
           style="fill:#ffffff;fill-opacity:1;stroke:#ffffff;stroke-width:0.75394928;stroke-linecap:butt;stroke-linejoin:miter;stroke-miterlimit:4;stroke-dasharray:none"
           d="m 384.33277,773.07214 -0.5682,1.51298 3.6382,0 -0.5682,-1.57611 z"
           id="path3178-5-7-27"
           inkscape:connector-curvature="0"
           sodipodi:nodetypes="ccccc" />
        <path
           style="fill:#ffffff;fill-opacity:1;stroke:#ffffff;stroke-width:0.75394928;stroke-linecap:butt;stroke-linejoin:miter;stroke-miterlimit:4;stroke-dasharray:none"
           d="m 346.29705,773.965 -0.5682,1.51298 3.6382,0 -0.5682,-1.57611 z"
           id="path3178-5-7-95"
           inkscape:connector-curvature="0"
           sodipodi:nodetypes="ccccc" />
        <rect
           style="fill:#ffffff;fill-opacity:1;stroke:#ffffff;stroke-width:0.95870864;stroke-linecap:butt;stroke-linejoin:miter;stroke-miterlimit:4;stroke-dasharray:none"
           id="rect3348"
           width="4.4162912"
           height="1.9162912"
           x="873.60449"
           y="722.87732" />
        <rect
           style="fill:#ffffff;fill-opacity:1;stroke:#ffffff;stroke-width:0.95870864;stroke-linecap:butt;stroke-linejoin:miter;stroke-miterlimit:4;stroke-dasharray:none"
           id="rect3348-4"
           width="4.4162912"
           height="1.9162912"
           x="880.05579"
           y="722.90607" />
        <rect
           style="fill:#ffffff;fill-opacity:1;stroke:#ffffff;stroke-width:0.79462522;stroke-linecap:butt;stroke-linejoin:miter;stroke-miterlimit:4;stroke-dasharray:none"
           id="rect3348-3"
           width="2.7946603"
           height="2.0803747"
           x="869.38434"
           y="739.16333" />
        <path
           id="path3386-1"
           style="fill:#ffffff;stroke:#000000;stroke-width:1px;stroke-linecap:butt;stroke-linejoin:miter;stroke-opacity:1"
           d="m 464.15789,819.76408 -79.04443,0 c 0.44438,6.27757 -4.92082,15.04596 -3.66181,0 l -24.875,-0.25254 0.007,-2.00982 24.875,-0.25254 c -1.25901,-15.04596 4.10619,-6.27757 3.66181,0 l 79.04443,0 z"
           inkscape:connector-curvature="0"
           sodipodi:nodetypes="ccccccccc" />
        <path
           style="fill:#ffffff;stroke:#000000;stroke-width:1px;stroke-linecap:butt;stroke-linejoin:miter;stroke-opacity:1"
           d="m 386.38335,821.16352 -0.25254,-5.68211 1.51523,-0.12627 -0.12627,-11.11167 5.55584,0 -0.37881,11.23794 1.38896,0 -0.37881,5.80838 z"
           id="path3411"
           inkscape:connector-curvature="0" />
        <path
           style="fill:#ffffff;stroke:#000000;stroke-width:1px;stroke-linecap:butt;stroke-linejoin:miter;stroke-opacity:1"
           d="m 461.28121,820.78471 c 2.10344,-1.74005 1.68078,-4.32214 -2.27285,-8.08122 20.76422,-0.40959 42.51676,2.0135 61.599,6.31346 l 0.37881,2.77792 z"
           id="path3413"
           inkscape:connector-curvature="0"
           sodipodi:nodetypes="ccccc" />
        <path
           style="fill:none;stroke:#ffffff;stroke-width:1px;stroke-linecap:butt;stroke-linejoin:miter;stroke-opacity:1"
           d="m 390.92903,800.32912 c 100.70205,7.66282 183.91931,25.22377 291.93409,27.7792 96.42373,-1.40715 177.50629,6.09347 292.43916,-6.06092 10.27136,0.0358 13.70886,7.66472 18.18274,14.14214"
           id="path3415"
           inkscape:connector-curvature="0"
           sodipodi:nodetypes="cccc" />
        <g
           id="g4214"
           transform="matrix(0.99624431,-0.08658686,0.08658686,0.99624431,-5.9683572,107.56946)">
          <path
             inkscape:transform-center-x="-1.4293549"
             transform="matrix(0,0.32400529,-1.0510359,0,1827.7022,482.17598)"
             d="m 1008.1039,800.0821 -4.711,0 -4.71105,0 2.35555,-4.07988 2.3555,-4.07988 2.3555,4.07988 z"
             inkscape:randomized="0"
             inkscape:rounded="0"
             inkscape:flatsided="false"
             sodipodi:arg2="1.5707963"
             sodipodi:arg1="0.52359878"
             sodipodi:r2="2.7199185"
             sodipodi:r1="5.4398379"
             sodipodi:cy="797.36218"
             sodipodi:cx="1003.3929"
             sodipodi:sides="3"
             id="path3421"
             style="fill:#ffffff;fill-opacity:1;stroke:#ffffff;stroke-width:1;stroke-linecap:butt;stroke-linejoin:miter;stroke-miterlimit:4;stroke-dasharray:none"
             sodipodi:type="star" />
          <path
             sodipodi:nodetypes="sssss"
             inkscape:connector-curvature="0"
             id="path3423"
             d="m 1080.315,807.34385 c 0,2.98003 -7.7088,2.48583 -17.218,2.48583 -9.5092,0 -17.218,-1.11294 -17.218,-2.48583 0,-1.3729 7.7088,-2.48584 17.218,-2.48584 9.5092,0 17.218,-1.20849 17.218,2.48584 z"
             style="fill:none;stroke:#ffffff;stroke-width:1;stroke-linecap:butt;stroke-linejoin:miter;stroke-miterlimit:4;stroke-dasharray:none" />
          <path
             sodipodi:nodetypes="sssss"
             inkscape:connector-curvature="0"
             id="path3423-2"
             d="m 1105.9097,807.12634 c 0,1.6076 -4.1586,1.341 -9.2884,1.341 -5.1299,0 -9.2885,-0.60038 -9.2885,-1.341 0,-0.74063 4.1586,-1.34102 9.2885,-1.34102 5.1298,0 9.2884,-0.65193 9.2884,1.34102 z"
             style="fill:#ffffff;stroke:#ffffff;stroke-width:1;stroke-linecap:butt;stroke-linejoin:miter;stroke-miterlimit:4;stroke-dasharray:none" />
          <rect
             y="807.14771"
             x="992.60114"
             height="0.25253814"
             width="98.994949"
             id="rect4212"
             style="fill:none;stroke:#ffffff;stroke-width:1;stroke-linecap:butt;stroke-linejoin:miter;stroke-miterlimit:4;stroke-dasharray:none" />
        </g>
        <path
           style="fill:none;stroke:#ffffff;stroke-width:1;stroke-linecap:butt;stroke-linejoin:miter;stroke-miterlimit:4"
           d="m 1191.0714,793.43359 40.8929,0 c -1.7213,2.35567 -2.1786,4.33215 -8.3929,8.03572 l -32.5,0 z"
           id="rect4220"
           inkscape:connector-curvature="0"
           sodipodi:nodetypes="ccccc" />
        <path
           style="fill:none;stroke:#ffffff;stroke-width:1;stroke-linecap:butt;stroke-linejoin:miter;stroke-miterlimit:4;stroke-dasharray:none"
           d="m 1190.7102,804.32242 27.5081,0 c -1.1128,2.4104 -6.1406,6.93279 -10.9616,8.04383 l -16.5465,0.17857 z"
           id="rect4220-3"
           inkscape:connector-curvature="0"
           sodipodi:nodetypes="ccccc" />
        <path
           style="fill:none;stroke:#ffffff;stroke-width:1;stroke-linecap:butt;stroke-linejoin:miter;stroke-miterlimit:4;stroke-dasharray:none"
           d="m 282.14286,788.07647 960.71424,0"
           id="path4241"
           inkscape:connector-curvature="0" />
        <g
           transform="translate(0,2.6171874e-6)"
           id="g3923">
          <path
             sodipodi:nodetypes="cccccccccccccc"
             inkscape:connector-curvature="0"
             d="m 1182.5893,782.36218 -0.1786,-2.05357 4.0179,0.17857 2.3214,14.01786 -1.4286,0.35714 -2.7678,-2.58928 -4.8661,0.35714 -4.8661,-0.35714 -2.7678,2.58928 -1.4286,-0.35714 2.3214,-14.01786 4.0179,-0.17857 -0.1786,2.05357 z"
             style="fill:#ffffff;stroke:#ffffff;stroke-width:1px;stroke-linecap:butt;stroke-linejoin:miter;stroke-opacity:1"
             id="path3880-0" />
          <path
             sodipodi:nodetypes="cccccccccccccccccc"
             inkscape:connector-curvature="0"
             d="m 1178.7218,782.80929 0,5.68211 c -1.1237,-0.10139 -2.1393,-0.70733 -2.557,-4.10375 l 0.4735,-0.50507 -1.3322,-1.25821 -1.1932,2.11052 0.9155,0.18941 c -0.022,2.05136 0.1174,3.96399 1.7362,4.60882 l -0.063,1.86247 6.0386,0 -0.063,-1.86247 c 1.6188,-0.64483 1.7582,-2.55746 1.7362,-4.60882 l 0.9155,-0.18941 -1.1932,-2.11052 -1.3322,1.25821 0.4735,0.50507 c -0.4177,3.39642 -1.4333,4.00236 -2.557,4.10375 l 0,-5.68211"
             style="fill:#000000;stroke:#000000;stroke-width:1px;stroke-linecap:butt;stroke-linejoin:miter;stroke-opacity:1"
             id="path3901-9" />
        </g>
      </g>
      <g
         id="text4384"
         style="font-size:17.45448494px;font-style:normal;font-weight:normal;line-height:125%;letter-spacing:0px;word-spacing:0px;fill:#ffffff;fill-opacity:1;stroke:none;font-family:Sans">
        <path
           id="path4389"
           style="font-variant:normal;font-stretch:normal;fill:#ffffff;font-family:Impact;-inkscape-font-specification:Impact"
           d="m 672.74344,752.09811 -3.58806,0 0,-2.4034 c 0,-0.69885 -0.0384,-1.13493 -0.11505,-1.30823 -0.0767,-0.17329 -0.24575,-0.25993 -0.5071,-0.25995 -0.29546,2e-5 -0.48296,0.10513 -0.5625,0.31534 -0.0796,0.21024 -0.11932,0.66478 -0.11932,1.36363 l 0,6.40907 c 0,0.67046 0.0398,1.10796 0.11932,1.3125 0.0795,0.20455 0.25851,0.30682 0.53693,0.30682 0.26704,0 0.44175,-0.10227 0.52414,-0.30682 0.0824,-0.20454 0.12358,-0.68465 0.12358,-1.44034 l 0,-1.7301 3.58806,0 0,0.53693 c -10e-6,1.42613 -0.10086,2.43749 -0.30256,3.03408 -0.20171,0.59659 -0.64773,1.11931 -1.33806,1.56817 -0.69035,0.44886 -1.5412,0.67329 -2.55255,0.6733 -1.05114,-1e-5 -1.91761,-0.19035 -2.59942,-0.57103 -0.68182,-0.38068 -1.13352,-0.90766 -1.35511,-1.58096 -0.22159,-0.67329 -0.33239,-1.68607 -0.33239,-3.03834 l 0,-4.03123 c 0,-0.99431 0.0341,-1.74004 0.10228,-2.23721 0.0682,-0.49715 0.2713,-0.97584 0.60937,-1.43608 0.33806,-0.46021 0.80681,-0.82242 1.40624,-1.08664 0.59943,-0.26419 1.28835,-0.39629 2.06676,-0.39631 1.05681,2e-5 1.92896,0.20456 2.61647,0.61364 0.68749,0.4091 1.13919,0.91904 1.35511,1.52982 0.21589,0.61081 0.32385,1.56109 0.32386,2.85085 z"
           inkscape:connector-curvature="0" />
        <path
           id="path4391"
           style="font-variant:normal;font-stretch:normal;fill:#ffffff;font-family:Impact;-inkscape-font-specification:Impact"
           d="m 678.16387,753.03561 0,2.37783 -4.52555,0 0,-2.37783 z"
           inkscape:connector-curvature="0" />
        <path
           id="path4393"
           style="font-variant:normal;font-stretch:normal;fill:#ffffff;font-family:Impact;-inkscape-font-specification:Impact"
           d="m 686.60987,746.08109 0,2.20737 -4.26987,0 0,2.34375 c 0.53408,-0.63067 1.22158,-0.94601 2.06249,-0.94602 0.94885,10e-6 1.66618,0.26563 2.15198,0.79687 0.48579,0.53126 0.72868,1.55256 0.72869,3.06391 l 0,1.96874 c -10e-6,0.97727 -0.0469,1.6946 -0.14062,2.15198 -0.0938,0.45739 -0.29405,0.88068 -0.60085,1.26989 -0.30683,0.3892 -0.73438,0.68749 -1.28267,0.89488 -0.5483,0.20738 -1.21733,0.31108 -2.0071,0.31108 -0.88636,0 -1.66761,-0.15483 -2.34374,-0.46449 -0.67613,-0.30966 -1.15624,-0.7713 -1.44033,-1.38494 -0.28409,-0.61363 -0.42614,-1.56249 -0.42614,-2.84658 l 0,-0.75 3.44317,0 0,0.8608 c 0,0.89204 0.0312,1.52556 0.0937,1.90056 0.0625,0.375 0.27841,0.5625 0.64773,0.5625 0.17045,0 0.30823,-0.054 0.41335,-0.16194 0.10511,-0.10795 0.16192,-0.22442 0.17045,-0.34943 0.009,-0.12499 0.0185,-0.6676 0.0298,-1.62783 l 0,-2.73579 c 0,-0.51703 -0.054,-0.86931 -0.16193,-1.05681 -0.10796,-0.18749 -0.28694,-0.28124 -0.53693,-0.28125 -0.1591,10e-6 -0.29262,0.0483 -0.40057,0.14488 -0.10796,0.0966 -0.17756,0.2003 -0.2088,0.31108 -0.0313,0.11081 -0.0469,0.36791 -0.0469,0.77131 l -3.40908,0 0.14489,-6.95452 z"
           inkscape:connector-curvature="0" />
        <path
           id="path4395"
           style="font-variant:normal;font-stretch:normal;fill:#ffffff;font-family:Impact;-inkscape-font-specification:Impact"
           d="m 696.73483,749.74585 -3.44317,0 c 0,-0.64204 -0.007,-1.04686 -0.0213,-1.21449 -0.0142,-0.1676 -0.0824,-0.30822 -0.20455,-0.42187 -0.12216,-0.11363 -0.28836,-0.17044 -0.49858,-0.17046 -0.17614,2e-5 -0.32102,0.054 -0.43465,0.16194 -0.11364,0.10796 -0.17899,0.24717 -0.19603,0.41761 -0.0171,0.17046 -0.0256,0.51421 -0.0256,1.03124 l 0,2.19886 c 0.17613,-0.36931 0.43465,-0.6463 0.77556,-0.83096 0.3409,-0.18465 0.76136,-0.27698 1.26136,-0.27699 0.63067,1e-5 1.18749,0.17046 1.67045,0.51136 0.48294,0.34092 0.78976,0.75001 0.92045,1.22727 0.13067,0.47728 0.19601,1.12216 0.19602,1.93465 l 0,1.09943 c -10e-6,0.96591 -0.0369,1.68466 -0.11079,2.15624 -0.0739,0.47159 -0.27132,0.90767 -0.59233,1.30824 -0.32103,0.40056 -0.76137,0.71164 -1.32102,0.93323 -0.55966,0.22159 -1.21165,0.33239 -1.95596,0.33239 -0.92613,0 -1.68465,-0.12784 -2.27556,-0.38352 -0.59091,-0.25568 -1.04687,-0.62358 -1.36789,-1.10369 -0.32102,-0.48011 -0.50852,-0.98437 -0.5625,-1.51278 -0.054,-0.52841 -0.081,-1.55397 -0.081,-3.0767 l 0,-1.90908 c -1e-5,-1.64203 0.0241,-2.74004 0.0724,-3.29402 0.0483,-0.55397 0.24574,-1.07811 0.59233,-1.57244 0.34658,-0.4943 0.81959,-0.86504 1.41903,-1.11221 0.59942,-0.24715 1.29118,-0.37073 2.07527,-0.37074 0.9659,10e-6 1.75851,0.15626 2.37783,0.46875 0.61931,0.31251 1.06249,0.75285 1.32955,1.32102 0.26703,0.56819 0.40055,1.28409 0.40056,2.14772 z m -3.44317,4.30396 c 0,-0.48863 -0.054,-0.82386 -0.16193,-1.00568 -0.10796,-0.18181 -0.28409,-0.27272 -0.52841,-0.27273 -0.23864,10e-6 -0.41335,0.0867 -0.52414,0.25995 -0.1108,0.1733 -0.1662,0.51278 -0.16619,1.01846 l 0,2.49715 c -10e-6,0.60795 0.0525,1.00568 0.15767,1.19318 0.1051,0.1875 0.27982,0.28125 0.52414,0.28125 0.14772,0 0.30113,-0.0725 0.46023,-0.21733 0.15908,-0.14489 0.23863,-0.53551 0.23863,-1.17187 z"
           inkscape:connector-curvature="0" />
      </g>
    </g>
    <g
       id="g3144">
      <path
         inkscape:connector-curvature="0"
         id="path4542"
         d="m 1230.5824,773.10692 19.2857,-37.5"
         style="fill:none;stroke:#000000;stroke-width:1px;stroke-linecap:butt;stroke-linejoin:miter;stroke-opacity:1" />
      <path
         transform="translate(280.22529,655.25)"
         sodipodi:nodetypes="ccccc"
         inkscape:connector-curvature="0"
         id="rect3101"
         d="m 969.01788,82.321205 c 16.36105,-3.177166 18.69709,10.18328 32.57142,5.357143 -1.4961,5.443722 -2.2376,10.862289 3.3036,16.071432 -27.46828,8.63747 -33.29757,-7.28093 -45.96431,-1.69643 z"
         style="fill:#ffffff;fill-opacity:1;stroke:#000000;stroke-width:1;stroke-linecap:butt;stroke-linejoin:miter;stroke-miterlimit:4" />
      <path
         inkscape:transform-center-y="0.02308468"
         inkscape:transform-center-x="-0.39926066"
         transform="matrix(0.52298327,0.17431221,-0.17431221,0.52298327,786.90626,543.8923)"
         d="m 928.66074,84.285488 -4.67426,-3.164622 -4.73273,3.076513 1.56531,-5.423411 -4.38843,-3.550391 5.64168,-0.18723 2.02052,-5.270775 1.92144,5.307697 5.63719,0.292872 -4.45417,3.467567 z"
         inkscape:randomized="0"
         inkscape:rounded="0"
         inkscape:flatsided="false"
         sodipodi:arg2="1.5801624"
         sodipodi:arg1="0.95184386"
         sodipodi:r2="3.3533816"
         sodipodi:r1="8.0024109"
         sodipodi:cy="77.767632"
         sodipodi:cx="924.01788"
         sodipodi:sides="5"
         id="path3104"
         style="fill:#000000;fill-opacity:1;stroke:#000000;stroke-width:1;stroke-linecap:butt;stroke-linejoin:miter;stroke-miterlimit:4;stroke-dasharray:none"
         sodipodi:type="star" />
      <path
         sodipodi:nodetypes="ccccc"
         inkscape:connector-curvature="0"
         id="rect3101-1"
         d="m 1281.9716,755.01057 c 0.6649,1.72186 1.5319,2.53519 3.2342,3.86234 -27.4683,8.63747 -33.119,-7.4595 -45.7857,-1.875 l 3.3768,-6.13015 c 12.9149,-2.27933 18.4247,10.12215 39.1747,4.14281 z"
         style="opacity:0.93999999;fill:#000000;fill-opacity:1;stroke:#000000;stroke-width:1;stroke-linecap:butt;stroke-linejoin:miter;stroke-miterlimit:4" />
      <path
         id="path3128"
         d="m 1270.9962,745.09217 c 0.8807,0.37772 1.6829,0.93638 2.3456,1.62851 0.6352,0.6713 1.1593,1.4777 1.3758,2.38493 0.1487,0.58396 0.072,1.20008 -0.088,1.77338 -0.1562,0.53361 -0.4268,1.03458 -0.8008,1.44696 0.3691,0.4093 0.7341,0.8222 1.1044,1.23057 -0.065,0.19315 -0.158,0.38892 -0.3279,0.5112 -0.1425,0.10811 -0.3191,0.15358 -0.4919,0.18525 -0.36,-0.42435 -0.7219,-0.8468 -1.082,-1.27095 -0.5007,0.29768 -1.0908,0.43407 -1.6708,0.42318 -0.7305,-0.0136 -1.4439,-0.29433 -2.0121,-0.74887 -0.3067,-0.24046 -0.579,-0.52206 -0.8263,-0.82262 -0.049,0.0418 -0.1001,0.0788 -0.1536,0.11375 0.01,0.0961 0.014,0.19221 0.021,0.28809 -0.1006,-2.3e-4 -0.2007,0.0176 -0.2878,0.0683 -0.2681,0.1472 -0.4632,0.38963 -0.6613,0.6163 -0.2455,0.28034 -0.47,0.59455 -0.7996,0.78336 -0.199,0.10635 -0.4795,0.0384 -0.5843,-0.16798 -0.1104,-0.20303 -0.024,-0.4506 0.1197,-0.61352 0.3531,-0.45471 0.9429,-0.62141 1.3318,-1.03631 0.1012,-0.11165 0.181,-0.24347 0.2255,-0.38798 0.091,0.0119 0.1837,0.0235 0.2757,0.0353 0.082,-0.0744 0.1667,-0.14831 0.2496,-0.22297 0.087,0.003 0.1749,0.018 0.2617,0.006 0.095,-0.0733 0.172,-0.16586 0.2583,-0.2482 0.087,0.0303 0.132,0.11658 0.1923,0.17991 0.3732,0.38559 0.8064,0.72839 1.3125,0.92116 0.6466,0.25299 1.3862,0.23208 2.0247,-0.0366 -1.1597,-1.35481 -2.3151,-2.71346 -3.4728,-4.06993 -0.2961,0.27489 -0.5912,0.55099 -0.891,0.82183 -0.322,-0.37255 -0.6474,-0.74203 -0.9712,-1.11297 0.6927,-0.61127 1.3923,-1.21479 2.0884,-1.82222 0.5568,0.18986 1.1127,0.3824 1.6701,0.57047 -0.4096,0.32741 -0.8252,0.64725 -1.2361,0.97304 1.2124,1.34801 2.4179,2.70232 3.6323,4.04844 0.3365,-0.36043 0.5426,-0.83336 0.5975,-1.32186 0.085,-0.64562 -0.025,-1.30006 -0.2,-1.9217 -0.2517,-0.82168 -0.7877,-1.51887 -1.3796,-2.12682 -0.3704,-0.37345 -0.7537,-0.73465 -1.151,-1.07931 z m 0,0"
         inkscape:connector-curvature="0"
         style="fill:#000000" />
      <path
         transform="translate(280.22529,655.25)"
         inkscape:connector-curvature="0"
         id="path3142"
         d="m 956.61446,104.68522 -16.66752,12.6269"
         style="fill:none;stroke:#000000;stroke-width:1px;stroke-linecap:butt;stroke-linejoin:miter;stroke-opacity:1" />
    </g>
  </g>
</svg>
